<svg id="Layer_1" data-name="Layer 1" xmlns="http://www.w3.org/2000/svg" viewBox="0 0 52 23.06"><defs><style>.cls-1{fill:#21262b;}</style></defs><title>website-logo-svg</title><path class="cls-1" d="M12.51,4.55H7.95V23.89a1.13,1.13,0,1,1-2.25,0V4.55H1.13A1.14,1.14,0,0,1,0,3.43,1.17,1.17,0,0,1,1.13,2.27H12.51a1.17,1.17,0,0,1,1.13,1.16A1.14,1.14,0,0,1,12.51,4.55Z" transform="translate(0 -1.97)"/><path class="cls-1" d="M23.26,25a1.14,1.14,0,0,1-1.13-1.13V11.44h-5a1.26,1.26,0,0,1-1.36-.85,1.15,1.15,0,0,1,1-1.47l6.51,0a1.17,1.17,0,0,1,1.13,1.16V23.89A1.14,1.14,0,0,1,23.26,25ZM21.82,3.43a1.43,1.43,0,1,1,2.86,0A1.43,1.43,0,1,1,21.82,3.43Z" transform="translate(0 -1.97)"/><path class="cls-1" d="M43.24,25a1.17,1.17,0,0,1-1.16-1.13V13.66A2.06,2.06,0,0,0,41.46,12a2.09,2.09,0,0,0-1.64-.65H38.7l0,12.51a1.13,1.13,0,1,1-2.25,0l0-12.51H33V23.89A1.17,1.17,0,0,1,31.85,25a1.14,1.14,0,0,1-1.13-1.13V10.25a1.07,1.07,0,0,1,.38-.89,1.12,1.12,0,0,1,.75-.27h8a4.2,4.2,0,0,1,3.27,1.33,4.19,4.19,0,0,1,1.26,3.24V23.89A1.14,1.14,0,0,1,43.24,25Z" transform="translate(0 -1.97)"/><path class="cls-1" d="M49,23.55a1.48,1.48,0,0,1,3,0A1.48,1.48,0,0,1,49,23.55Z" transform="translate(0 -1.97)"/></svg>